<?xml version="1.0" standalone="no"?>
<!DOCTYPE svg PUBLIC "-//W3C//DTD SVG 20010904//EN"
 "http://www.w3.org/TR/2001/REC-SVG-20010904/DTD/svg10.dtd">
<svg version="1.0" xmlns="http://www.w3.org/2000/svg"
 width="440.000000pt" height="440.000000pt" viewBox="0 0 440.000000 440.000000"
 preserveAspectRatio="xMidYMid meet">
<metadata>
Created by potrace 1.11, written by Peter Selinger 2001-2013
</metadata>
<g transform="translate(0.000000,440.000000) scale(0.100000,-0.100000)"
fill="#000000" stroke="none">
<path d="M567 3215 c-53 -15 -112 -76 -126 -128 -12 -48 -13 -869 -1 -902 4
-11 15 -45 24 -76 9 -31 33 -83 55 -116 148 -230 416 -323 676 -236 28 10 57
23 66 30 8 7 19 13 23 13 15 0 83 56 138 114 94 98 146 226 146 362 1 158 -52
288 -163 399 -116 116 -262 175 -420 169 -38 -2 -79 -5 -90 -8 -11 -2 -35 -8
-52 -12 l-33 -6 -1 108 c-1 144 -3 159 -36 212 -44 71 -125 101 -206 77z m497
-755 c6 -6 17 -10 26 -10 22 0 66 -47 84 -92 68 -162 -100 -317 -258 -238
-150 76 -129 296 33 344 48 14 99 12 115 -4z"/>
<path d="M1786 3218 c-53 -11 -101 -50 -128 -101 -21 -41 -21 -51 -22 -602 -1
-308 2 -584 6 -613 13 -105 88 -172 189 -169 75 3 133 40 162 105 20 46 20 61
21 643 0 577 -1 597 -20 634 -41 78 -126 120 -208 103z"/>
<path d="M2560 2829 c-233 -32 -423 -214 -467 -447 -23 -121 5 -293 65 -396
l29 -49 -37 -107 c-20 -58 -40 -112 -45 -120 -12 -19 27 -10 165 40 82 30 86
30 120 14 91 -42 152 -54 265 -50 87 2 124 8 177 28 228 85 372 305 362 552
-15 340 -299 581 -634 535z"/>
<path d="M3688 2809 c-156 -44 -296 -164 -364 -314 -42 -91 -59 -223 -40 -315
4 -19 8 -42 10 -50 12 -59 61 -153 115 -218 136 -163 373 -243 568 -189 29 8
55 12 57 9 9 -8 -6 -86 -22 -121 -19 -40 -81 -87 -134 -101 -21 -6 -54 -25
-73 -41 -90 -79 -91 -199 -2 -281 30 -27 36 -28 130 -28 91 0 104 2 164 32
122 61 227 178 279 311 24 61 24 62 24 477 0 364 -2 423 -17 466 -46 136 -155
260 -287 324 -102 51 -109 52 -236 56 -79 2 -121 -2 -172 -17z m217 -366 c36
-9 85 -53 106 -95 74 -144 -65 -308 -222 -262 -179 53 -178 302 1 358 42 13
62 13 115 -1z"/>
<path d="M143 2080 c-68 -15 -130 -87 -137 -158 -6 -47 21 -113 59 -148 64
-58 156 -63 229 -11 34 24 76 110 70 143 -2 13 -6 36 -9 50 -14 82 -120 144
-212 124z"/>
</g>
</svg>
